# xmcd
#
# Track frame offsets: 
#        150
#        15969
#        27828
#        41790
#        53433
#        83213
#        96426
#        114328
#        124307
#        133935
#        145331
#        159556
#        169672
#        183736
#        201583
#        219862
#        238474
#        252326
#
# Disc length: 3705 seconds
#
# Revision: 1
# Processed by: cddbd v1.5.2PL0 Copyright (c) Steve Scherf et al.
# Submitted via: ExactAudioCopyFreeDBPlugin 1.0
#
DISCID=060e7712
DTITLE=Various Artist - Jazzclub Moods - Coffee Time Jazz
DYEAR=2007
DGENRE=Jazz
TTITLE0=Ella Fitzgerals - Black Coffee
TTITLE1=Noro Morales and His Orchestra - Isla Verde
TTITLE2=Paul Desmond - El Condor Pasa
TTITLE3=Lalo Schifrin - Rapaz De Bem
TTITLE4=Joe Henderson - Boto
TTITLE5=Les McCann - Guantanamera
TTITLE6=Cal Tjader - It Didn't End
TTITLE7=Kenyon Hopkins - Hard Latin
TTITLE8=Baja Marimba Band - Flyin' High
TTITLE9=Chico O'Farrill - A Man And A Woman
TTITLE10=Luiz Henrique - A Trip To Brazil
TTITLE11=Walter Wanderley - Amazonas
TTITLE12=Oscar Brown Jr. and Luiz Henrique - Barra Limpa
TTITLE13=El Chicano - Senior Blues
TTITLE14=Daniel Salinas - Baiao
TTITLE15=Ramsey Lewis Trio - Bold And Black
TTITLE16=Shirey Scott - Blue Bongo
TTITLE17=Rotary Connection feat. Minnie Ripperton - I Am The Black Gol
TTITLE17=d Of The Sun
EXTD=YEAR: 2007
EXTT0=
EXTT1=
EXTT2=
EXTT3=
EXTT4=
EXTT5=
EXTT6=
EXTT7=
EXTT8=
EXTT9=
EXTT10=
EXTT11=
EXTT12=
EXTT13=
EXTT14=
EXTT15=
EXTT16=
EXTT17=
PLAYORDER=
